<?xml version="1.0" encoding="UTF-8"?>
<svg fill="#f5f5dc14" width="700pt" height="700pt" version="1.1" viewBox="0 0 700 700" xmlns="http://www.w3.org/2000/svg" xmlns:xlink="http://www.w3.org/1999/xlink">
 <g>
  <path d="m259.5 206.62c61.059 4.3633 100.31 58.879 104.67 87.227 2.1797 15.266-15.266 34.891-23.988 39.254 4.3633 2.1797 4.3633 6.543 0 8.7227v2.1797c0 6.543-4.3633 10.902-10.902 10.902-2.1797 2.1797-2.1797 13.086 0 15.266 54.516 13.086-30.531 32.711-45.793-6.543 2.1797 2.1797 8.7227 17.445 13.086 28.348l-89.406 21.809-23.988-28.348-26.168 28.348-89.406-21.809c4.3633-10.902 10.902-26.168 13.086-28.348-15.266 39.254-100.31 19.625-45.793 6.543 2.1797-2.1797 4.3633-13.086 0-15.266-6.543 0-10.902-4.3633-10.902-10.902v-2.1797c-4.3633-2.1797-4.3633-6.543 0-8.7227-8.7227-4.3633-26.168-23.988-23.988-39.254 4.3633-28.348 41.434-80.684 98.129-87.227-2.1797-4.3633-2.1797-10.902-2.1797-17.445 0-2.1797 2.1797-8.7227 0-10.902-4.3633-15.266-6.543-26.168 2.1797-37.07-19.625-6.543-19.625-45.793 6.543-45.793 2.1797-113.39 183.18-93.77 202.8-19.625h4.3633c17.445 0 34.891 8.7227 34.891 26.168s-17.445 26.168-34.891 26.168c-15.266 0-32.711-8.7227-32.711-26.168 0-4.3633 0-10.902 4.3633-13.086-13.086-8.7227-23.988-6.543-30.531 6.543h2.1797c23.988 0 26.168 39.254 4.3633 45.793 10.902 10.902 8.7227 21.809 4.3633 37.07-2.1797 2.1797 0 8.7227 0 10.902 0 6.543 0 13.086-4.3633 17.445zm261.68 344.55h37.07v-115.58h-28.348v32.711h-2.1797c2.1797 8.7227 2.1797 19.625-6.543 26.168v28.348c2.1797-4.3633 6.543-6.543 13.086-6.543 17.445 0 17.445 26.168 0 26.168-6.543 0-10.902-2.1797-13.086-6.543zm-6.543 0h-58.879v-80.684h58.879zm-61.059-174.45h-26.168c-2.1797 0-4.3633 4.3633-4.3633 6.543v15.266h34.891v-15.266c0-2.1797-2.1797-6.543-4.3633-6.543zm-67.602-21.809c13.086 6.543 23.988 17.445 32.711 28.348v15.266h-50.156c-4.3633-4.3633-8.7227-8.7227-10.902-13.086-2.1797-2.1797-2.1797-6.543 0-6.543 10.902-4.3633 17.445-13.086 21.809-23.988 0-2.1797 4.3633-2.1797 6.543 0zm109.04 0c-13.086 6.543-23.988 17.445-34.891 28.348v15.266h50.156c4.3633-4.3633 8.7227-8.7227 13.086-13.086 0-2.1797 0-6.543-2.1797-6.543-8.7227-4.3633-15.266-13.086-19.625-23.988-2.1797-2.1797-6.543-2.1797-6.543 0zm-39.254 109.04v-61.059h67.602v61.059zm-32.711 87.227h-58.879v-80.684h58.879zm-67.602-87.227v-61.059h67.602v61.059zm309.66 50.156c19.625 0 19.625 28.348 0 28.348-17.445 0-17.445-28.348 0-28.348zm-43.613-4.3633c8.7227 0 8.7227 15.266 0 15.266-10.902 0-10.902-15.266 0-15.266zm17.445-67.602c-32.711 0-32.711 52.336 0 52.336 34.891 0 34.891-52.336 0-52.336zm41.434-95.949c10.902 0 10.902 17.445 0 17.445-13.086 0-13.086-17.445 0-17.445zm-19.625 30.531c26.168 0 26.168 39.254 0 39.254-26.168 0-26.168-39.254 0-39.254zm-34.891-30.531c-17.445 0-17.445 26.168 0 26.168 15.266 0 15.266-26.168 0-26.168zm-95.949 65.422c10.902-4.3633 8.7227-21.809-2.1797-23.988 2.1797-4.3633 2.1797-10.902-4.3633-15.266-8.7227-4.3633-13.086-10.902-17.445-19.625-2.1797-4.3633-8.7227-6.543-15.266-4.3633-10.902 8.7227-21.809 17.445-30.531 26.168v-34.891h98.129v85.047h-28.348v-13.086zm30.531-109.04h37.07c4.3633 0 6.543 2.1797 6.543 8.7227v21.809h-50.156v-21.809c0-6.543 4.3633-8.7227 6.543-8.7227zm98.129-32.711c-19.625 10.902-34.891 23.988-47.977 41.434v21.809h69.781c6.543-6.543 13.086-15.266 17.445-21.809 2.1797-2.1797 2.1797-6.543 0-8.7227-15.266-6.543-23.988-17.445-30.531-32.711-2.1797-2.1797-6.543-2.1797-8.7227 0zm-157.01 0c19.625 10.902 34.891 23.988 47.977 41.434v21.809h-69.781c-6.543-6.543-13.086-15.266-19.625-21.809 0-2.1797 0-6.543 2.1797-8.7227 15.266-6.543 23.988-17.445 30.531-32.711 0-2.1797 6.543-2.1797 8.7227 0zm100.31 281.31h87.227v-115.58h-87.227zm98.129-126.48v-85.047h-98.129v85.047zm-540.81-235.52c-2.1797-2.1797 2.1797-4.3633 4.3633-2.1797 6.543 8.7227 28.348 8.7227 34.891 0 2.1797-2.1797 6.543 0 4.3633 2.1797-6.543 10.902-37.07 10.902-43.613 0zm47.977-43.613c-10.902 0-10.902 17.445 0 17.445 13.086 0 13.086-17.445 0-17.445zm-56.699 0c13.086 0 13.086 17.445 0 17.445-10.902 0-10.902-17.445 0-17.445zm32.711 178.82c17.445 0 17.445-26.168 0-26.168-19.625 0-19.625 26.168 0 26.168zm0-69.781c17.445 0 17.445 26.168 0 26.168-19.625 0-19.625-26.168 0-26.168zm128.66-172.27c15.266 0 26.168 8.7227 26.168 19.625 0 10.902-10.902 19.625-26.168 19.625-13.086 0-23.988-8.7227-23.988-19.625 0-10.902 10.902-19.625 23.988-19.625zm-207.16 19.625h150.47c15.266 0 15.266 32.711 0 32.711h-150.47c-15.266 0-15.266-32.711 0-32.711zm10.902 37.07c-2.1797 8.7227 0 34.891 13.086 39.254 8.7227 2.1797 37.07-10.902 50.156-10.902 13.086 0 43.613 13.086 52.336 10.902 13.086-4.3633 13.086-30.531 13.086-39.254zm133.02 0c2.1797 10.902 0 37.07-15.266 41.434-13.086 4.3633-39.254-8.7227-54.516-8.7227-13.086 0-39.254 13.086-52.336 8.7227-15.266-4.3633-17.445-30.531-15.266-41.434h-2.1797c-10.902 10.902-10.902 21.809-6.543 37.07 2.1797 4.3633 0 8.7227 0 13.086 0 13.086 8.7227 26.168 26.168 28.348 8.7227 0 13.086 0 15.266 6.543 6.543 19.625 65.422 19.625 71.961 0 2.1797-6.543 6.543-6.543 15.266-6.543 17.445-2.1797 26.168-15.266 26.168-28.348 0-4.3633-2.1797-8.7227-2.1797-13.086 6.543-15.266 6.543-26.168-4.3633-37.07zm-85.047 198.44c-4.3633 0-8.7227 2.1797-8.7227 4.3633-8.7227 0-26.168-2.1797-37.07-4.3633-13.086-2.1797-23.988-4.3633-34.891-8.7227v13.086 13.086c10.902 4.3633 21.809 6.543 32.711 8.7227 10.902 2.1797 28.348 4.3633 39.254 4.3633 0 4.3633 4.3633 6.543 8.7227 6.543 13.086 2.1797 23.988 2.1797 37.07 0 4.3633 0 8.7227-2.1797 8.7227-6.543 10.902 0 28.348-2.1797 39.254-4.3633 10.902-2.1797 23.988-4.3633 32.711-8.7227 2.1797-4.3633 0-8.7227 0-13.086v-13.086c-10.902 4.3633-21.809 6.543-34.891 8.7227-8.7227 2.1797-28.348 4.3633-37.07 4.3633 0-2.1797-4.3633-4.3633-8.7227-4.3633-15.266 2.1797-21.809 2.1797-37.07 0zm39.254 135.2v2.1797c-6.543 0-10.902 4.3633-10.902 10.902 0 4.3633 2.1797 8.7227-2.1797 10.902-4.3633 4.3633 0 15.266 6.543 17.445-4.3633 8.7227-4.3633 37.07 21.809 37.07h82.867c43.613 0 34.891-52.336-17.445-37.07-4.3633 0-8.7227 0-13.086-2.1797 4.3633-2.1797 6.543-6.543 4.3633-10.902-2.1797-4.3633 0-6.543 2.1797-10.902 0-2.1797 0-6.543-2.1797-8.7227 15.266-13.086 19.625-47.977 17.445-80.684l-89.406 23.988-19.625-23.988-21.809 23.988-89.406-23.988c-2.1797 32.711 4.3633 67.602 17.445 80.684-2.1797 2.1797-2.1797 6.543-2.1797 8.7227 2.1797 4.3633 4.3633 6.543 2.1797 10.902-2.1797 4.3633 0 8.7227 4.3633 10.902-4.3633 2.1797-8.7227 2.1797-13.086 2.1797-52.336-15.266-61.059 37.07-17.445 37.07h82.867c26.168 0 26.168-28.348 21.809-37.07 6.543-2.1797 10.902-13.086 6.543-17.445-4.3633-2.1797-2.1797-6.543-2.1797-10.902 0-6.543-4.3633-10.902-10.902-10.902v-2.1797c-17.445-71.961 58.879-71.961 41.434 0zm61.059 8.7227c-19.625-4.3633-39.254-4.3633-58.879-2.1797-2.1797 0-6.543 2.1797-6.543 6.543 0 4.3633 2.1797 10.902-2.1797 15.266-2.1797 2.1797 4.3633 10.902 6.543 10.902 19.625-4.3633 32.711-6.543 58.879-2.1797 4.3633 0 8.7227-2.1797 6.543-6.543-2.1797-4.3633 0-8.7227 2.1797-15.266 2.1797-2.1797-2.1797-4.3633-6.543-6.543zm-63.238-111.21c2.1797 0 4.3633-2.1797 4.3633-2.1797 2.1797-8.7227 0-17.445 0-23.988 0-2.1797-2.1797-2.1797-2.1797-2.1797-15.266 2.1797-23.988 2.1797-41.434 0 0 0-2.1797 0-2.1797 2.1797 0 6.543-2.1797 15.266 0 23.988 0 0 2.1797 2.1797 4.3633 2.1797 13.086 2.1797 23.988 2.1797 37.07 0zm95.949-45.793 32.711 8.7227c4.3633 0 8.7227 2.1797 6.543 6.543-2.1797 0-2.1797 4.3633-2.1797 4.3633 0 4.3633-6.543 8.7227-10.902 6.543-10.902-6.543-21.809-10.902-32.711-10.902-10.902-2.1797-4.3633-19.625 6.543-15.266zm-17.445 2.1797-2.1797-34.891c-2.1797-10.902 28.348 8.7227 21.809 17.445l-4.3633 8.7227c-6.543 0-13.086 4.3633-15.266 8.7227zm58.879 28.348c6.543 2.1797 10.902 6.543 8.7227 8.7227 0 4.3633-6.543 4.3633-15.266 2.1797 0 0-2.1797-6.543 0-6.543 2.1797-2.1797 4.3633-2.1797 6.543-4.3633zm-237.7 126.48c19.625-4.3633 39.254-4.3633 58.879-2.1797 2.1797 0 6.543 2.1797 6.543 6.543 0 4.3633-2.1797 10.902 2.1797 15.266 2.1797 2.1797-4.3633 10.902-6.543 10.902-19.625-4.3633-32.711-6.543-58.879-2.1797-4.3633 0-8.7227-2.1797-6.543-6.543 2.1797-4.3633 2.1797-8.7227-2.1797-15.266 0-2.1797 2.1797-4.3633 6.543-6.543zm-32.711-157.01-32.711 8.7227c-4.3633 0-8.7227 2.1797-6.543 6.543 2.1797 0 2.1797 4.3633 2.1797 4.3633 0 4.3633 6.543 8.7227 10.902 6.543 10.902-6.543 21.809-10.902 32.711-10.902 10.902-2.1797 4.3633-19.625-6.543-15.266zm17.445 2.1797 2.1797-34.891c2.1797-10.902-28.348 8.7227-21.809 17.445l4.3633 8.7227c6.543 0 13.086 4.3633 15.266 8.7227zm-56.699 28.348c-8.7227 2.1797-13.086 6.543-10.902 8.7227 0 4.3633 6.543 4.3633 15.266 2.1797 0 0 2.1797-6.543 0-6.543-2.1797-2.1797-4.3633-2.1797-4.3633-4.3633z" fill-rule="evenodd"/>
  <use y="583.878906" xlink:href="#u"/>
  <use x="8" y="583.878906" xlink:href="#a"/>
  <use x="13.378906" y="583.878906" xlink:href="#c"/>
  <use x="20.773437" y="583.878906" xlink:href="#e"/>
  <use x="28.132812" y="583.878906" xlink:href="#d"/>
  <use x="33.34375" y="583.878906" xlink:href="#c"/>
  <use x="40.738281" y="583.878906" xlink:href="#g"/>
  <use x="52.339844" y="583.878906" xlink:href="#n"/>
  <use x="60.144531" y="583.878906" xlink:href="#f"/>
  <use x="71.046875" y="583.878906" xlink:href="#m"/>
  <use x="78.902344" y="583.878906" xlink:href="#e"/>
  <use x="86.257812" y="583.878906" xlink:href="#l"/>
  <use x="94.019531" y="583.878906" xlink:href="#g"/>
  <use x="101.824219" y="583.878906" xlink:href="#k"/>
  <use x="109.589844" y="583.878906" xlink:href="#j"/>
  <use x="117.121094" y="583.878906" xlink:href="#i"/>
  <use x="125.113281" y="583.878906" xlink:href="#a"/>
  <use x="130.488281" y="583.878906" xlink:href="#j"/>
  <use x="134.226562" y="583.878906" xlink:href="#f"/>
  <use x="141.335938" y="583.878906" xlink:href="#e"/>
  <use x="148.691406" y="583.878906" xlink:href="#t"/>
  <use x="155.183594" y="583.878906" xlink:href="#h"/>
  <use x="166.542969" y="583.878906" xlink:href="#b"/>
  <use x="174.035156" y="583.878906" xlink:href="#a"/>
  <use x="179.410156" y="583.878906" xlink:href="#b"/>
  <use y="594.78125" xlink:href="#s"/>
  <use x="4.742188" y="594.78125" xlink:href="#a"/>
  <use x="10.121094" y="594.78125" xlink:href="#b"/>
  <use x="17.613281" y="594.78125" xlink:href="#h"/>
  <use x="32.769531" y="594.78125" xlink:href="#d"/>
  <use x="37.980469" y="594.78125" xlink:href="#k"/>
  <use x="45.742188" y="594.78125" xlink:href="#c"/>
  <use x="56.933594" y="594.78125" xlink:href="#r"/>
  <use x="66.058594" y="594.78125" xlink:href="#b"/>
  <use x="73.550781" y="594.78125" xlink:href="#q"/>
  <use x="81.3125" y="594.78125" xlink:href="#l"/>
  <use x="92.871094" y="594.78125" xlink:href="#i"/>
  <use x="100.863281" y="594.78125" xlink:href="#a"/>
  <use x="106.238281" y="594.78125" xlink:href="#b"/>
  <use x="113.730469" y="594.78125" xlink:href="#p"/>
  <use x="117.46875" y="594.78125" xlink:href="#c"/>
  <use x="124.863281" y="594.78125" xlink:href="#o"/>
  <use x="131.324219" y="594.78125" xlink:href="#d"/>
 </g>
</svg>
